G04 ================== begin FILE IDENTIFICATION RECORD ==================*
G04 Layout Name:  PCB.brd*
G04 Film Name:    SMTOP*
G04 File Format:  Gerber RS274X*
G04 File Origin:  Cadence Allegro 17.2-S025*
G04 Origin Date:  Tue Dec 20 02:04:29 2022*
G04 *
G04 Layer:  VIA CLASS/SOLDERMASK_TOP*
G04 Layer:  PIN/SOLDERMASK_TOP*
G04 Layer:  DRC ERROR CLASS/SOLDERMASK_TOP*
G04 *
G04 Offset:    (0.0 0.0)*
G04 Mirror:    No*
G04 Mode:      Positive*
G04 Rotation:  0*
G04 FullContactRelief:  No*
G04 UndefLineWidth:     10.0*
G04 ================== end FILE IDENTIFICATION RECORD ====================*
%FSLAX25Y25*MOIN*%
%IR0*IPPOS*OFA0.00000B0.00000*MIA0B0*SFA1.00000B1.00000*%
%ADD15R,.08X.12*%
%ADD13C,.044*%
%ADD12C,.08*%
%ADD11R,.0444X.0516*%
%ADD21R,.0612X.0612*%
%ADD19R,.0516X.0444*%
%ADD22R,.0948X.0612*%
%ADD14R,.0576X.0912*%
%ADD10R,.0444X.0684*%
%ADD20R,.0684X.0444*%
%ADD18R,.0612X.0948*%
%ADD16R,.049X.0576*%
%ADD17R,.0576X.049*%
%LPD*%
G75*
G54D10*
X16100Y10000D03*
Y25000D03*
X21100Y67500D03*
Y77500D03*
X23900Y10000D03*
Y25000D03*
X41100Y60000D03*
X48900D03*
X28900Y67500D03*
Y77500D03*
X66100Y40000D03*
X73900D03*
Y70000D03*
X66100D03*
X73900Y50000D03*
X66100D03*
X136100Y40000D03*
Y60000D03*
Y50000D03*
X143900Y40000D03*
Y60000D03*
Y50000D03*
G54D20*
X49400Y125800D03*
Y118000D03*
X35200Y126100D03*
Y118300D03*
X60000Y8600D03*
Y16400D03*
X130000Y116100D03*
Y123900D03*
G54D11*
X20000Y36500D03*
Y43500D03*
X70000Y123500D03*
Y116500D03*
G54D21*
X55000Y88400D03*
Y97500D03*
X109100Y80000D03*
X100000D03*
X90000Y90900D03*
Y100000D03*
G54D12*
X20000D03*
X120000Y140000D03*
G54D22*
X104500Y57800D03*
G54D13*
X15000Y77500D03*
X19000Y130000D03*
X30000Y10000D03*
X50000Y72000D03*
X42500Y113600D03*
X52500Y10000D03*
X79700Y30000D03*
X60000Y60000D03*
X80000Y70000D03*
X81580Y45770D03*
X70000Y80000D03*
X57500Y82500D03*
X62500Y127500D03*
X104500Y50000D03*
X102500Y127500D03*
X130000Y40000D03*
X126500Y92200D03*
X120000Y100000D03*
X140000Y92500D03*
X137500Y127500D03*
X115000Y110000D03*
X140000Y104000D03*
G54D14*
X15000Y117500D03*
X22900D03*
X100000Y40000D03*
X107900D03*
X100000Y20000D03*
X107900D03*
X142100Y120000D03*
X150000D03*
G54D15*
X13500Y140000D03*
X53500D03*
X26500D03*
X66500D03*
X93500D03*
X106500D03*
X133500D03*
X146500D03*
G54D16*
X43800Y36500D03*
X36300D03*
X40000Y43500D03*
G54D17*
X36500Y16200D03*
Y23700D03*
X43500Y20000D03*
X106500Y100000D03*
X113500Y96300D03*
X133500D03*
X126500Y100000D03*
X113500Y103800D03*
X133500D03*
G54D18*
X32800Y93000D03*
X67800Y95500D03*
G54D19*
X41500Y77500D03*
X48500D03*
Y107500D03*
X41500D03*
X66500Y30000D03*
X73500D03*
Y60000D03*
X66500D03*
X76500Y80000D03*
X83500D03*
X136500D03*
X143500D03*
M02*
