G04 ================== begin FILE IDENTIFICATION RECORD ==================*
G04 Layout Name:  PCB.brd*
G04 Film Name:    SSTOP*
G04 File Format:  Gerber RS274X*
G04 File Origin:  Cadence Allegro 17.2-S025*
G04 Origin Date:  Tue Dec 20 02:04:29 2022*
G04 *
G04 Layer:  USER PART NUMBER/SILKSCREEN_TOP*
G04 Layer:  TOLERANCE/SILKSCREEN_TOP*
G04 Layer:  REF DES/SILKSCREEN_TOP*
G04 Layer:  PACKAGE GEOMETRY/SILKSCREEN_TOP*
G04 Layer:  DEVICE TYPE/SILKSCREEN_TOP*
G04 Layer:  COMPONENT VALUE/SILKSCREEN_TOP*
G04 Layer:  BOARD GEOMETRY/SILKSCREEN_TOP*
G04 *
G04 Offset:    (0.0 0.0)*
G04 Mirror:    No*
G04 Mode:      Positive*
G04 Rotation:  0*
G04 FullContactRelief:  No*
G04 UndefLineWidth:     2.5*
G04 ================== end FILE IDENTIFICATION RECORD ====================*
%FSLAX25Y25*MOIN*%
%IR0*IPPOS*OFA0.00000B0.00000*MIA0B0*SFA1.00000B1.00000*%
%ADD10C,.001*%
%ADD11C,.0025*%
G75*
%LPD*%
G75*
G54D10*
G01X6480Y8500D02*
Y11600D01*
X7440D01*
X7750Y11440D01*
X7940Y11240D01*
X8020Y10820D01*
X7940Y10410D01*
X7710Y10150D01*
X7440Y10000D01*
X6480D01*
G01X7440D02*
X8020Y8500D01*
G01X9700Y8860D02*
X9970Y8600D01*
X10270Y8500D01*
X10580Y8600D01*
X10850Y8910D01*
X11040Y9380D01*
X11120Y9840D01*
Y10410D01*
X11040Y10880D01*
X10850Y11290D01*
X10620Y11500D01*
X10350Y11600D01*
X10040Y11500D01*
X9810Y11290D01*
X9660Y10980D01*
X9580Y10570D01*
X9660Y10210D01*
X9850Y9840D01*
X10080Y9640D01*
X10350Y9580D01*
X10660Y9690D01*
X10890Y9950D01*
X11120Y10410D01*
G01X6880Y23700D02*
Y26800D01*
X7840D01*
X8150Y26640D01*
X8340Y26440D01*
X8420Y26020D01*
X8340Y25610D01*
X8110Y25350D01*
X7840Y25200D01*
X6880D01*
G01X7840D02*
X8420Y23700D01*
G01X10750D02*
X11020Y23750D01*
X11320Y23910D01*
X11520Y24160D01*
X11590Y24530D01*
X11520Y24890D01*
X11290Y25200D01*
X10940Y25350D01*
X10560D01*
X10330Y25460D01*
X10140Y25710D01*
X10060Y26080D01*
X10180Y26440D01*
X10440Y26700D01*
X10750Y26800D01*
X11060Y26700D01*
X11320Y26440D01*
X11440Y26080D01*
X11360Y25710D01*
X11170Y25460D01*
X10940Y25350D01*
X10560D01*
X10210Y25200D01*
X9980Y24890D01*
X9910Y24530D01*
X9980Y24160D01*
X10180Y23910D01*
X10480Y23750D01*
X10750Y23700D01*
G01X17680Y60000D02*
Y63100D01*
X18640D01*
X18950Y62940D01*
X19140Y62740D01*
X19220Y62320D01*
X19140Y61910D01*
X18910Y61650D01*
X18640Y61500D01*
X17680D01*
G01X18640D02*
X19220Y60000D01*
G01X20710Y60460D02*
X20940Y60210D01*
X21200Y60050D01*
X21550Y60000D01*
X21900Y60100D01*
X22160Y60310D01*
X22360Y60670D01*
X22390Y61080D01*
X22320Y61500D01*
X22120Y61760D01*
X21860Y61960D01*
X21590Y62010D01*
X21320Y61960D01*
X20980Y61760D01*
X21090Y63100D01*
X22120D01*
G01X17680Y82500D02*
Y85600D01*
X18640D01*
X18950Y85440D01*
X19140Y85240D01*
X19220Y84820D01*
X19140Y84410D01*
X18910Y84150D01*
X18640Y84000D01*
X17680D01*
G01X18640D02*
X19220Y82500D01*
G01X20820Y85080D02*
X21050Y85390D01*
X21320Y85550D01*
X21630Y85600D01*
X22010Y85500D01*
X22280Y85240D01*
X22360Y84930D01*
X22320Y84620D01*
X22160Y84360D01*
X21400Y83840D01*
X21050Y83480D01*
X20820Y82960D01*
X20740Y82500D01*
X22360D01*
G01X12810Y107500D02*
Y110600D01*
X13570D01*
X13880Y110440D01*
X14110Y110240D01*
X14300Y109930D01*
X14460Y109570D01*
X14490Y109050D01*
X14460Y108530D01*
X14300Y108170D01*
X14110Y107860D01*
X13880Y107650D01*
X13570Y107500D01*
X12810D01*
G01X16750D02*
Y110600D01*
X16290Y109980D01*
G01Y107500D02*
X17210D01*
G01X48650Y40000D02*
X48340Y40050D01*
X48080Y40260D01*
X47840Y40570D01*
X47690Y40930D01*
X47610Y41340D01*
Y41760D01*
X47690Y42170D01*
X47840Y42530D01*
X48080Y42840D01*
X48340Y43050D01*
X48650Y43100D01*
X48960Y43050D01*
X49220Y42840D01*
X49460Y42530D01*
X49610Y42170D01*
X49690Y41760D01*
Y41340D01*
X49610Y40930D01*
X49460Y40570D01*
X49220Y40260D01*
X48960Y40050D01*
X48650Y40000D01*
G01X48960Y40830D02*
X49420Y40000D01*
G01X51750D02*
Y43100D01*
X51290Y42480D01*
G01Y40000D02*
X52210D01*
G01X45150Y25000D02*
X44840Y25050D01*
X44580Y25260D01*
X44340Y25570D01*
X44190Y25930D01*
X44110Y26340D01*
Y26760D01*
X44190Y27170D01*
X44340Y27530D01*
X44580Y27840D01*
X44840Y28050D01*
X45150Y28100D01*
X45460Y28050D01*
X45720Y27840D01*
X45960Y27530D01*
X46110Y27170D01*
X46190Y26760D01*
Y26340D01*
X46110Y25930D01*
X45960Y25570D01*
X45720Y25260D01*
X45460Y25050D01*
X45150Y25000D01*
G01X45460Y25830D02*
X45920Y25000D01*
G01X47520Y27580D02*
X47750Y27890D01*
X48020Y28050D01*
X48330Y28100D01*
X48710Y28000D01*
X48980Y27740D01*
X49060Y27430D01*
X49020Y27120D01*
X48860Y26860D01*
X48100Y26340D01*
X47750Y25980D01*
X47520Y25460D01*
X47440Y25000D01*
X49060D01*
G01X26190Y41640D02*
X25960Y41800D01*
X25700Y41900D01*
X25390D01*
X25040Y41740D01*
X24780Y41490D01*
X24580Y41180D01*
X24430Y40660D01*
X24390Y40190D01*
X24470Y39730D01*
X24580Y39420D01*
X24810Y39110D01*
X25080Y38900D01*
X25350Y38800D01*
X25620D01*
X25890Y38900D01*
X26120Y39060D01*
X26310Y39260D01*
G01X28370Y38800D02*
X28450Y39470D01*
X28570Y40040D01*
X28720Y40560D01*
X28910Y41120D01*
X29220Y41900D01*
X27680D01*
G01X41790Y72840D02*
X41560Y73000D01*
X41300Y73100D01*
X40990D01*
X40640Y72940D01*
X40380Y72690D01*
X40180Y72380D01*
X40030Y71860D01*
X39990Y71390D01*
X40070Y70930D01*
X40180Y70620D01*
X40410Y70310D01*
X40680Y70100D01*
X40950Y70000D01*
X41220D01*
X41490Y70100D01*
X41720Y70260D01*
X41910Y70460D01*
G01X43320Y72580D02*
X43550Y72890D01*
X43820Y73050D01*
X44130Y73100D01*
X44510Y73000D01*
X44780Y72740D01*
X44860Y72430D01*
X44820Y72120D01*
X44660Y71860D01*
X43900Y71340D01*
X43550Y70980D01*
X43320Y70460D01*
X43240Y70000D01*
X44860D01*
G01X40180Y52500D02*
Y55600D01*
X41140D01*
X41450Y55440D01*
X41640Y55240D01*
X41720Y54820D01*
X41640Y54410D01*
X41410Y54150D01*
X41140Y54000D01*
X40180D01*
G01X41140D02*
X41720Y52500D01*
G01X44510D02*
Y55600D01*
X43090Y53380D01*
X45010D01*
G01X25380Y104300D02*
Y107400D01*
X26300D01*
X26610Y107240D01*
X26840Y106880D01*
X26920Y106470D01*
X26840Y106060D01*
X26650Y105750D01*
X26300Y105590D01*
X25380D01*
G01X29250Y104300D02*
X28940Y104350D01*
X28680Y104560D01*
X28440Y104870D01*
X28290Y105230D01*
X28210Y105640D01*
Y106060D01*
X28290Y106470D01*
X28440Y106830D01*
X28680Y107140D01*
X28940Y107350D01*
X29250Y107400D01*
X29560Y107350D01*
X29820Y107140D01*
X30060Y106830D01*
X30210Y106470D01*
X30290Y106060D01*
Y105640D01*
X30210Y105230D01*
X30060Y104870D01*
X29820Y104560D01*
X29560Y104350D01*
X29250Y104300D01*
G01X32350Y107400D02*
Y104300D01*
G01X31470Y107400D02*
X33230D01*
G01X35450Y104300D02*
Y107400D01*
X34990Y106780D01*
G01Y104300D02*
X35910D01*
G01X33830Y130900D02*
Y134000D01*
X34790D01*
X35100Y133840D01*
X35290Y133640D01*
X35370Y133220D01*
X35290Y132810D01*
X35060Y132550D01*
X34790Y132400D01*
X33830D01*
G01X34790D02*
X35370Y130900D01*
G01X37700D02*
Y134000D01*
X37240Y133380D01*
G01Y130900D02*
X38160D01*
G01X40800D02*
Y134000D01*
X40340Y133380D01*
G01Y130900D02*
X41260D01*
G01X35380Y145620D02*
X35580Y145310D01*
X35800Y145100D01*
X36070Y145000D01*
X36380Y145100D01*
X36610Y145310D01*
X36840Y145620D01*
X36920Y146030D01*
Y148100D01*
G01X38410Y145620D02*
X38640Y145260D01*
X38940Y145050D01*
X39290Y145000D01*
X39600Y145050D01*
X39900Y145310D01*
X40090Y145620D01*
X40130Y145930D01*
X40060Y146290D01*
X39790Y146550D01*
X39520Y146650D01*
X39170D01*
G01X39520D02*
X39750Y146810D01*
X39940Y147070D01*
X40020Y147380D01*
X39940Y147690D01*
X39750Y147940D01*
X39400Y148100D01*
X39060Y148050D01*
X38710Y147840D01*
G01X67600Y43900D02*
X63100D01*
Y36100D01*
X76900D01*
Y43900D01*
X72400D01*
G01X58890Y31640D02*
X58660Y31800D01*
X58400Y31900D01*
X58090D01*
X57740Y31740D01*
X57480Y31490D01*
X57280Y31180D01*
X57130Y30660D01*
X57090Y30190D01*
X57170Y29730D01*
X57280Y29420D01*
X57510Y29110D01*
X57780Y28900D01*
X58050Y28800D01*
X58320D01*
X58590Y28900D01*
X58820Y29060D01*
X59010Y29260D01*
G01X60420Y30090D02*
X60690Y30450D01*
X60920Y30660D01*
X61230Y30760D01*
X61500Y30660D01*
X61690Y30450D01*
X61840Y30140D01*
X61880Y29780D01*
X61840Y29470D01*
X61690Y29160D01*
X61460Y28900D01*
X61190Y28800D01*
X60880Y28900D01*
X60610Y29210D01*
X60460Y29680D01*
X60420Y30190D01*
X60500Y30870D01*
X60610Y31230D01*
X60800Y31590D01*
X61070Y31850D01*
X61340Y31900D01*
X61610Y31800D01*
X61800Y31540D01*
G01X65430Y15200D02*
Y18300D01*
X66390D01*
X66700Y18140D01*
X66890Y17940D01*
X66970Y17520D01*
X66890Y17110D01*
X66660Y16850D01*
X66390Y16700D01*
X65430D01*
G01X66390D02*
X66970Y15200D01*
G01X69300D02*
Y18300D01*
X68840Y17680D01*
G01Y15200D02*
X69760D01*
G01X72400Y18300D02*
X72090Y18200D01*
X71860Y17940D01*
X71710Y17630D01*
X71590Y17210D01*
X71560Y16750D01*
X71590Y16280D01*
X71710Y15870D01*
X71860Y15560D01*
X72090Y15300D01*
X72400Y15200D01*
X72710Y15300D01*
X72940Y15560D01*
X73090Y15870D01*
X73210Y16280D01*
X73240Y16750D01*
X73210Y17210D01*
X73090Y17630D01*
X72940Y17940D01*
X72710Y18200D01*
X72400Y18300D01*
G01X56980Y38200D02*
Y41300D01*
X57940D01*
X58250Y41140D01*
X58440Y40940D01*
X58520Y40520D01*
X58440Y40110D01*
X58210Y39850D01*
X57940Y39700D01*
X56980D01*
G01X57940D02*
X58520Y38200D01*
G01X60120Y39490D02*
X60390Y39850D01*
X60620Y40060D01*
X60930Y40160D01*
X61200Y40060D01*
X61390Y39850D01*
X61540Y39540D01*
X61580Y39180D01*
X61540Y38870D01*
X61390Y38560D01*
X61160Y38300D01*
X60890Y38200D01*
X60580Y38300D01*
X60310Y38610D01*
X60160Y39080D01*
X60120Y39590D01*
X60200Y40270D01*
X60310Y40630D01*
X60500Y40990D01*
X60770Y41250D01*
X61040Y41300D01*
X61310Y41200D01*
X61500Y40940D01*
G01X67600Y46100D02*
X63100D01*
Y53900D01*
X76900D01*
Y46100D01*
X72400D01*
G01X80490Y61140D02*
X80260Y61300D01*
X80000Y61400D01*
X79690D01*
X79340Y61240D01*
X79080Y60990D01*
X78880Y60680D01*
X78730Y60160D01*
X78690Y59690D01*
X78770Y59230D01*
X78880Y58920D01*
X79110Y58610D01*
X79380Y58400D01*
X79650Y58300D01*
X79920D01*
X80190Y58400D01*
X80420Y58560D01*
X80610Y58760D01*
G01X81910D02*
X82140Y58510D01*
X82400Y58350D01*
X82750Y58300D01*
X83100Y58400D01*
X83360Y58610D01*
X83560Y58970D01*
X83590Y59380D01*
X83520Y59800D01*
X83320Y60060D01*
X83060Y60260D01*
X82790Y60310D01*
X82520Y60260D01*
X82180Y60060D01*
X82290Y61400D01*
X83320D01*
G01X57080Y67900D02*
Y71000D01*
X58040D01*
X58350Y70840D01*
X58540Y70640D01*
X58620Y70220D01*
X58540Y69810D01*
X58310Y69550D01*
X58040Y69400D01*
X57080D01*
G01X58040D02*
X58620Y67900D01*
G01X60110Y68520D02*
X60340Y68160D01*
X60640Y67950D01*
X60990Y67900D01*
X61300Y67950D01*
X61600Y68210D01*
X61790Y68520D01*
X61830Y68830D01*
X61760Y69190D01*
X61490Y69450D01*
X61220Y69550D01*
X60870D01*
G01X61220D02*
X61450Y69710D01*
X61640Y69970D01*
X61720Y70280D01*
X61640Y70590D01*
X61450Y70840D01*
X61100Y71000D01*
X60760Y70950D01*
X60410Y70740D01*
G01X57080Y48200D02*
Y51300D01*
X58040D01*
X58350Y51140D01*
X58540Y50940D01*
X58620Y50520D01*
X58540Y50110D01*
X58310Y49850D01*
X58040Y49700D01*
X57080D01*
G01X58040D02*
X58620Y48200D01*
G01X60870D02*
X60950Y48870D01*
X61070Y49440D01*
X61220Y49960D01*
X61410Y50520D01*
X61720Y51300D01*
X60180D01*
G01X69380Y107300D02*
Y110400D01*
X70300D01*
X70610Y110240D01*
X70840Y109880D01*
X70920Y109470D01*
X70840Y109060D01*
X70650Y108750D01*
X70300Y108590D01*
X69380D01*
G01X73250Y107300D02*
X72940Y107350D01*
X72680Y107560D01*
X72440Y107870D01*
X72290Y108230D01*
X72210Y108640D01*
Y109060D01*
X72290Y109470D01*
X72440Y109830D01*
X72680Y110140D01*
X72940Y110350D01*
X73250Y110400D01*
X73560Y110350D01*
X73820Y110140D01*
X74060Y109830D01*
X74210Y109470D01*
X74290Y109060D01*
Y108640D01*
X74210Y108230D01*
X74060Y107870D01*
X73820Y107560D01*
X73560Y107350D01*
X73250Y107300D01*
G01X76350Y110400D02*
Y107300D01*
G01X75470Y110400D02*
X77230D01*
G01X78720Y109880D02*
X78950Y110190D01*
X79220Y110350D01*
X79530Y110400D01*
X79910Y110300D01*
X80180Y110040D01*
X80260Y109730D01*
X80220Y109420D01*
X80060Y109160D01*
X79300Y108640D01*
X78950Y108280D01*
X78720Y107760D01*
X78640Y107300D01*
X80260D01*
G01X76090Y123640D02*
X75860Y123800D01*
X75600Y123900D01*
X75290D01*
X74940Y123740D01*
X74680Y123490D01*
X74480Y123180D01*
X74330Y122660D01*
X74290Y122190D01*
X74370Y121730D01*
X74480Y121420D01*
X74710Y121110D01*
X74980Y120900D01*
X75250Y120800D01*
X75520D01*
X75790Y120900D01*
X76020Y121060D01*
X76210Y121260D01*
G01X77510Y121420D02*
X77740Y121060D01*
X78040Y120850D01*
X78390Y120800D01*
X78700Y120850D01*
X79000Y121110D01*
X79190Y121420D01*
X79230Y121730D01*
X79160Y122090D01*
X78890Y122350D01*
X78620Y122450D01*
X78270D01*
G01X78620D02*
X78850Y122610D01*
X79040Y122870D01*
X79120Y123180D01*
X79040Y123490D01*
X78850Y123740D01*
X78500Y123900D01*
X78160Y123850D01*
X77810Y123640D01*
G01X56790Y110240D02*
X56560Y110400D01*
X56300Y110500D01*
X55990D01*
X55640Y110340D01*
X55380Y110090D01*
X55180Y109780D01*
X55030Y109260D01*
X54990Y108790D01*
X55070Y108330D01*
X55180Y108020D01*
X55410Y107710D01*
X55680Y107500D01*
X55950Y107400D01*
X56220D01*
X56490Y107500D01*
X56720Y107660D01*
X56910Y107860D01*
G01X59050Y107400D02*
Y110500D01*
X58590Y109880D01*
G01Y107400D02*
X59510D01*
G01X54680Y125000D02*
Y128100D01*
X55640D01*
X55950Y127940D01*
X56140Y127740D01*
X56220Y127320D01*
X56140Y126910D01*
X55910Y126650D01*
X55640Y126500D01*
X54680D01*
G01X55640D02*
X56220Y125000D01*
G01X58550D02*
Y128100D01*
X58090Y127480D01*
G01Y125000D02*
X59010D01*
G01X75380Y145620D02*
X75580Y145310D01*
X75800Y145100D01*
X76070Y145000D01*
X76380Y145100D01*
X76610Y145310D01*
X76840Y145620D01*
X76920Y146030D01*
Y148100D01*
G01X79250Y145000D02*
Y148100D01*
X78790Y147480D01*
G01Y145000D02*
X79710D01*
G01X96810Y10500D02*
Y13600D01*
X97570D01*
X97880Y13440D01*
X98110Y13240D01*
X98300Y12930D01*
X98460Y12570D01*
X98490Y12050D01*
X98460Y11530D01*
X98300Y11170D01*
X98110Y10860D01*
X97880Y10650D01*
X97570Y10500D01*
X96810D01*
G01X101210D02*
Y13600D01*
X99790Y11380D01*
X101710D01*
G01X96610Y30600D02*
Y33700D01*
X97370D01*
X97680Y33540D01*
X97910Y33340D01*
X98100Y33030D01*
X98260Y32670D01*
X98290Y32150D01*
X98260Y31630D01*
X98100Y31270D01*
X97910Y30960D01*
X97680Y30750D01*
X97370Y30600D01*
X96610D01*
G01X99710Y31220D02*
X99940Y30860D01*
X100240Y30650D01*
X100590Y30600D01*
X100900Y30650D01*
X101200Y30910D01*
X101390Y31220D01*
X101430Y31530D01*
X101360Y31890D01*
X101090Y32150D01*
X100820Y32250D01*
X100470D01*
G01X100820D02*
X101050Y32410D01*
X101240Y32670D01*
X101320Y32980D01*
X101240Y33290D01*
X101050Y33540D01*
X100700Y33700D01*
X100360Y33650D01*
X100010Y33440D01*
G01X110950Y88500D02*
X110640Y88550D01*
X110380Y88760D01*
X110140Y89070D01*
X109990Y89430D01*
X109910Y89840D01*
Y90260D01*
X109990Y90670D01*
X110140Y91030D01*
X110380Y91340D01*
X110640Y91550D01*
X110950Y91600D01*
X111260Y91550D01*
X111520Y91340D01*
X111760Y91030D01*
X111910Y90670D01*
X111990Y90260D01*
Y89840D01*
X111910Y89430D01*
X111760Y89070D01*
X111520Y88760D01*
X111260Y88550D01*
X110950Y88500D01*
G01X111260Y89330D02*
X111720Y88500D01*
G01X113210Y89120D02*
X113440Y88760D01*
X113740Y88550D01*
X114090Y88500D01*
X114400Y88550D01*
X114700Y88810D01*
X114890Y89120D01*
X114930Y89430D01*
X114860Y89790D01*
X114590Y90050D01*
X114320Y90150D01*
X113970D01*
G01X114320D02*
X114550Y90310D01*
X114740Y90570D01*
X114820Y90880D01*
X114740Y91190D01*
X114550Y91440D01*
X114200Y91600D01*
X113860Y91550D01*
X113510Y91340D01*
G01X84290Y75340D02*
X84060Y75500D01*
X83800Y75600D01*
X83490D01*
X83140Y75440D01*
X82880Y75190D01*
X82680Y74880D01*
X82530Y74360D01*
X82490Y73890D01*
X82570Y73430D01*
X82680Y73120D01*
X82910Y72810D01*
X83180Y72600D01*
X83450Y72500D01*
X83720D01*
X83990Y72600D01*
X84220Y72760D01*
X84410Y72960D01*
G01X87010Y72500D02*
Y75600D01*
X85590Y73380D01*
X87510D01*
G01X117770Y10000D02*
Y12500D01*
X118410D01*
X118620Y12370D01*
X118780Y12080D01*
X118830Y11750D01*
X118780Y11420D01*
X118650Y11170D01*
X118410Y11040D01*
X117770D01*
G01X119910Y10000D02*
Y12500D01*
X120450D01*
X120660Y12370D01*
X120820Y12210D01*
X120950Y11960D01*
X121060Y11670D01*
X121090Y11250D01*
X121060Y10830D01*
X120950Y10540D01*
X120820Y10290D01*
X120660Y10120D01*
X120450Y10000D01*
X119910D01*
G01X123290Y12290D02*
X123130Y12420D01*
X122940Y12500D01*
X122730D01*
X122490Y12370D01*
X122300Y12170D01*
X122170Y11920D01*
X122060Y11500D01*
X122030Y11120D01*
X122090Y10750D01*
X122170Y10500D01*
X122330Y10250D01*
X122510Y10080D01*
X122700Y10000D01*
X122890D01*
X123070Y10080D01*
X123230Y10210D01*
X123370Y10370D01*
G01X125430Y10000D02*
X124370D01*
Y12500D01*
X125430D01*
G01X125010Y11290D02*
X124370D01*
G01X127100Y10000D02*
Y12500D01*
X126780Y12000D01*
G01Y10000D02*
X127420D01*
G01X130990Y12080D02*
X131150Y12330D01*
X131340Y12460D01*
X131550Y12500D01*
X131820Y12420D01*
X132010Y12210D01*
X132060Y11960D01*
X132030Y11710D01*
X131930Y11500D01*
X131390Y11080D01*
X131150Y10790D01*
X130990Y10370D01*
X130940Y10000D01*
X132060D01*
G01X133700Y12500D02*
X133490Y12420D01*
X133330Y12210D01*
X133220Y11960D01*
X133140Y11620D01*
X133110Y11250D01*
X133140Y10870D01*
X133220Y10540D01*
X133330Y10290D01*
X133490Y10080D01*
X133700Y10000D01*
X133910Y10080D01*
X134070Y10290D01*
X134180Y10540D01*
X134260Y10870D01*
X134290Y11250D01*
X134260Y11620D01*
X134180Y11960D01*
X134070Y12210D01*
X133910Y12420D01*
X133700Y12500D01*
G01X135390Y12080D02*
X135550Y12330D01*
X135740Y12460D01*
X135950Y12500D01*
X136220Y12420D01*
X136410Y12210D01*
X136460Y11960D01*
X136430Y11710D01*
X136330Y11500D01*
X135790Y11080D01*
X135550Y10790D01*
X135390Y10370D01*
X135340Y10000D01*
X136460D01*
G01X137590Y12080D02*
X137750Y12330D01*
X137940Y12460D01*
X138150Y12500D01*
X138420Y12420D01*
X138610Y12210D01*
X138660Y11960D01*
X138630Y11710D01*
X138530Y11500D01*
X137990Y11080D01*
X137750Y10790D01*
X137590Y10370D01*
X137540Y10000D01*
X138660D01*
G01X139950Y10830D02*
X140650D01*
G01X141990Y12080D02*
X142150Y12330D01*
X142340Y12460D01*
X142550Y12500D01*
X142820Y12420D01*
X143010Y12210D01*
X143060Y11960D01*
X143030Y11710D01*
X142930Y11500D01*
X142390Y11080D01*
X142150Y10790D01*
X141990Y10370D01*
X141940Y10000D01*
X143060D01*
G01X144700Y12500D02*
X144490Y12420D01*
X144330Y12210D01*
X144220Y11960D01*
X144140Y11620D01*
X144110Y11250D01*
X144140Y10870D01*
X144220Y10540D01*
X144330Y10290D01*
X144490Y10080D01*
X144700Y10000D01*
X144910Y10080D01*
X145070Y10290D01*
X145180Y10540D01*
X145260Y10870D01*
X145290Y11250D01*
X145260Y11620D01*
X145180Y11960D01*
X145070Y12210D01*
X144910Y12420D01*
X144700Y12500D01*
G01X146390Y12080D02*
X146550Y12330D01*
X146740Y12460D01*
X146950Y12500D01*
X147220Y12420D01*
X147410Y12210D01*
X147460Y11960D01*
X147430Y11710D01*
X147330Y11500D01*
X146790Y11080D01*
X146550Y10790D01*
X146390Y10370D01*
X146340Y10000D01*
X147460D01*
G01X148510Y10500D02*
X148670Y10210D01*
X148890Y10040D01*
X149130Y10000D01*
X149340Y10040D01*
X149550Y10250D01*
X149690Y10500D01*
X149710Y10750D01*
X149660Y11040D01*
X149470Y11250D01*
X149290Y11330D01*
X149050D01*
G01X149290D02*
X149450Y11460D01*
X149580Y11670D01*
X149630Y11920D01*
X149580Y12170D01*
X149450Y12370D01*
X149210Y12500D01*
X148970Y12460D01*
X148730Y12290D01*
G01X117740Y20330D02*
X117950Y20120D01*
X118190Y20000D01*
X118410D01*
X118620Y20120D01*
X118780Y20330D01*
X118860Y20630D01*
X118810Y20920D01*
X118670Y21170D01*
X118430Y21330D01*
X118110Y21420D01*
X117930Y21580D01*
X117850Y21870D01*
X117900Y22170D01*
X118030Y22370D01*
X118220Y22500D01*
X118410D01*
X118590Y22420D01*
X118750Y22210D01*
G01X120020Y19170D02*
Y21670D01*
G01Y21290D02*
X120150Y21500D01*
X120290Y21620D01*
X120500Y21670D01*
X120690Y21620D01*
X120870Y21420D01*
X120950Y21120D01*
X120980Y20830D01*
X120950Y20540D01*
X120870Y20250D01*
X120710Y20080D01*
X120500Y20000D01*
X120310Y20040D01*
X120130Y20170D01*
X120020Y20330D01*
G01X123180Y20000D02*
Y21670D01*
G01Y21380D02*
X123070Y21540D01*
X122910Y21620D01*
X122730Y21670D01*
X122540Y21580D01*
X122380Y21420D01*
X122270Y21170D01*
X122220Y20830D01*
X122270Y20500D01*
X122380Y20250D01*
X122540Y20080D01*
X122730Y20000D01*
X122910Y20040D01*
X123070Y20170D01*
X123180Y20330D01*
G01X124900Y20000D02*
Y22500D01*
G01X127580Y20000D02*
Y21670D01*
G01Y21380D02*
X127470Y21540D01*
X127310Y21620D01*
X127130Y21670D01*
X126940Y21580D01*
X126780Y21420D01*
X126670Y21170D01*
X126620Y20830D01*
X126670Y20500D01*
X126780Y20250D01*
X126940Y20080D01*
X127130Y20000D01*
X127310Y20040D01*
X127470Y20170D01*
X127580Y20330D01*
G01X129300Y22500D02*
Y20000D01*
G01X128930Y21670D02*
X129670D01*
G01X131100Y21120D02*
X131950D01*
X131870Y21420D01*
X131740Y21580D01*
X131550Y21670D01*
X131370Y21620D01*
X131210Y21500D01*
X131100Y21210D01*
X131050Y20960D01*
Y20710D01*
X131100Y20460D01*
X131230Y20210D01*
X131390Y20040D01*
X131580Y20000D01*
X131770Y20080D01*
X131950Y20330D01*
G01X133700Y20000D02*
Y22500D01*
G01X135450Y21670D02*
Y20500D01*
X135550Y20210D01*
X135710Y20040D01*
X135900Y20000D01*
X136090Y20040D01*
X136250Y20210D01*
X136350Y20500D01*
G01Y20000D02*
Y21670D01*
G01X117740Y15330D02*
X117950Y15120D01*
X118190Y15000D01*
X118410D01*
X118620Y15120D01*
X118780Y15330D01*
X118860Y15630D01*
X118810Y15920D01*
X118670Y16170D01*
X118430Y16330D01*
X118110Y16420D01*
X117930Y16580D01*
X117850Y16870D01*
X117900Y17170D01*
X118030Y17370D01*
X118220Y17500D01*
X118410D01*
X118590Y17420D01*
X118750Y17210D01*
G01X120500Y16670D02*
Y15000D01*
G01Y17330D02*
X120450Y17370D01*
Y17460D01*
X120500Y17500D01*
X120550Y17460D01*
Y17370D01*
X120500Y17330D01*
G01X122700Y15000D02*
Y17500D01*
G01X124420Y16670D02*
X124900Y15000D01*
X125380Y16670D01*
G01X127100D02*
Y15000D01*
G01Y17330D02*
X127050Y17370D01*
Y17460D01*
X127100Y17500D01*
X127150Y17460D01*
Y17370D01*
X127100Y17330D01*
G01X129780Y15000D02*
Y16670D01*
G01Y16380D02*
X129670Y16540D01*
X129510Y16620D01*
X129330Y16670D01*
X129140Y16580D01*
X128980Y16420D01*
X128870Y16170D01*
X128820Y15830D01*
X128870Y15500D01*
X128980Y15250D01*
X129140Y15080D01*
X129330Y15000D01*
X129510Y15040D01*
X129670Y15170D01*
X129780Y15330D01*
G01X131150Y15830D02*
X131850D01*
G01X133700Y15000D02*
X133490Y15040D01*
X133300Y15210D01*
X133140Y15460D01*
X133030Y15750D01*
X132980Y16080D01*
Y16420D01*
X133030Y16750D01*
X133140Y17040D01*
X133300Y17290D01*
X133490Y17460D01*
X133700Y17500D01*
X133910Y17460D01*
X134100Y17290D01*
X134260Y17040D01*
X134370Y16750D01*
X134420Y16420D01*
Y16080D01*
X134370Y15750D01*
X134260Y15460D01*
X134100Y15210D01*
X133910Y15040D01*
X133700Y15000D01*
G01X136380D02*
Y16670D01*
G01Y16380D02*
X136270Y16540D01*
X136110Y16620D01*
X135930Y16670D01*
X135740Y16580D01*
X135580Y16420D01*
X135470Y16170D01*
X135420Y15830D01*
X135470Y15500D01*
X135580Y15250D01*
X135740Y15080D01*
X135930Y15000D01*
X136110Y15040D01*
X136270Y15170D01*
X136380Y15330D01*
G01X137650Y15000D02*
Y16670D01*
G01Y16250D02*
X137750Y16460D01*
X137910Y16620D01*
X138130Y16670D01*
X138310Y16620D01*
X138470Y16460D01*
X138550Y16170D01*
Y15000D01*
G01X140780D02*
Y16670D01*
G01Y16380D02*
X140670Y16540D01*
X140510Y16620D01*
X140330Y16670D01*
X140140Y16580D01*
X139980Y16420D01*
X139870Y16170D01*
X139820Y15830D01*
X139870Y15500D01*
X139980Y15250D01*
X140140Y15080D01*
X140330Y15000D01*
X140510Y15040D01*
X140670Y15170D01*
X140780Y15330D01*
G01X145020Y15000D02*
Y17500D01*
X144030Y15710D01*
X145370D01*
G01X146310Y15500D02*
X146470Y15210D01*
X146690Y15040D01*
X146930Y15000D01*
X147140Y15040D01*
X147350Y15250D01*
X147490Y15500D01*
X147510Y15750D01*
X147460Y16040D01*
X147270Y16250D01*
X147090Y16330D01*
X146850D01*
G01X147090D02*
X147250Y16460D01*
X147380Y16670D01*
X147430Y16920D01*
X147380Y17170D01*
X147250Y17370D01*
X147010Y17500D01*
X146770Y17460D01*
X146530Y17290D01*
G01X148510Y15370D02*
X148670Y15170D01*
X148860Y15040D01*
X149100Y15000D01*
X149340Y15080D01*
X149530Y15250D01*
X149660Y15540D01*
X149690Y15870D01*
X149630Y16210D01*
X149500Y16420D01*
X149310Y16580D01*
X149130Y16620D01*
X148940Y16580D01*
X148700Y16420D01*
X148780Y17500D01*
X149500D01*
G01X151510Y16330D02*
X151620Y16460D01*
X151700Y16670D01*
X151750Y16960D01*
X151700Y17210D01*
X151590Y17370D01*
X151410Y17500D01*
X150690D01*
Y15000D01*
X151570D01*
X151750Y15170D01*
X151860Y15420D01*
X151910Y15710D01*
X151860Y16000D01*
X151700Y16250D01*
X151510Y16330D01*
X150690D01*
G01X130430Y31500D02*
Y34600D01*
X131390D01*
X131700Y34440D01*
X131890Y34240D01*
X131970Y33820D01*
X131890Y33410D01*
X131660Y33150D01*
X131390Y33000D01*
X130430D01*
G01X131390D02*
X131970Y31500D01*
G01X135140Y34340D02*
X134910Y34500D01*
X134650Y34600D01*
X134340D01*
X133990Y34440D01*
X133730Y34190D01*
X133530Y33880D01*
X133380Y33360D01*
X133340Y32890D01*
X133420Y32430D01*
X133530Y32120D01*
X133760Y31810D01*
X134030Y31600D01*
X134300Y31500D01*
X134570D01*
X134840Y31600D01*
X135070Y31760D01*
X135260Y31960D01*
G01X136440Y31500D02*
X137400Y34600D01*
X138360Y31500D01*
G01X138010Y32580D02*
X136790D01*
G01X139690Y31910D02*
X140000Y31650D01*
X140350Y31500D01*
X140650D01*
X140960Y31650D01*
X141190Y31910D01*
X141310Y32280D01*
X141230Y32640D01*
X141040Y32950D01*
X140690Y33150D01*
X140230Y33260D01*
X139960Y33460D01*
X139850Y33820D01*
X139930Y34190D01*
X140120Y34440D01*
X140380Y34600D01*
X140650D01*
X140920Y34500D01*
X141150Y34240D01*
G01X143600Y34600D02*
Y31500D01*
G01X142720Y34600D02*
X144480D01*
G01X146240D02*
X147160D01*
G01X146700D02*
Y31500D01*
G01X146240D02*
X147160D01*
G01X148960Y32120D02*
X149190Y31760D01*
X149490Y31550D01*
X149840Y31500D01*
X150150Y31550D01*
X150450Y31810D01*
X150640Y32120D01*
X150680Y32430D01*
X150610Y32790D01*
X150340Y33050D01*
X150070Y33150D01*
X149720D01*
G01X150070D02*
X150300Y33310D01*
X150490Y33570D01*
X150570Y33880D01*
X150490Y34190D01*
X150300Y34440D01*
X149950Y34600D01*
X149610Y34550D01*
X149260Y34340D01*
G01X129930Y65000D02*
Y68100D01*
X130890D01*
X131200Y67940D01*
X131390Y67740D01*
X131470Y67320D01*
X131390Y66910D01*
X131160Y66650D01*
X130890Y66500D01*
X129930D01*
G01X130890D02*
X131470Y65000D01*
G01X134640Y67840D02*
X134410Y68000D01*
X134150Y68100D01*
X133840D01*
X133490Y67940D01*
X133230Y67690D01*
X133030Y67380D01*
X132880Y66860D01*
X132840Y66390D01*
X132920Y65930D01*
X133030Y65620D01*
X133260Y65310D01*
X133530Y65100D01*
X133800Y65000D01*
X134070D01*
X134340Y65100D01*
X134570Y65260D01*
X134760Y65460D01*
G01X135940Y65000D02*
X136900Y68100D01*
X137860Y65000D01*
G01X137510Y66080D02*
X136290D01*
G01X139190Y65410D02*
X139500Y65150D01*
X139850Y65000D01*
X140150D01*
X140460Y65150D01*
X140690Y65410D01*
X140810Y65780D01*
X140730Y66140D01*
X140540Y66450D01*
X140190Y66650D01*
X139730Y66760D01*
X139460Y66960D01*
X139350Y67320D01*
X139430Y67690D01*
X139620Y67940D01*
X139880Y68100D01*
X140150D01*
X140420Y68000D01*
X140650Y67740D01*
G01X143100Y68100D02*
Y65000D01*
G01X142220Y68100D02*
X143980D01*
G01X145740D02*
X146660D01*
G01X146200D02*
Y65000D01*
G01X145740D02*
X146660D01*
G01X149300D02*
Y68100D01*
X148840Y67480D01*
G01Y65000D02*
X149760D01*
G01X111630Y48500D02*
Y51600D01*
X112590D01*
X112900Y51440D01*
X113090Y51240D01*
X113170Y50820D01*
X113090Y50410D01*
X112860Y50150D01*
X112590Y50000D01*
X111630D01*
G01X112590D02*
X113170Y48500D01*
G01X116340Y51340D02*
X116110Y51500D01*
X115850Y51600D01*
X115540D01*
X115190Y51440D01*
X114930Y51190D01*
X114730Y50880D01*
X114580Y50360D01*
X114540Y49890D01*
X114620Y49430D01*
X114730Y49120D01*
X114960Y48810D01*
X115230Y48600D01*
X115500Y48500D01*
X115770D01*
X116040Y48600D01*
X116270Y48760D01*
X116460Y48960D01*
G01X117640Y48500D02*
X118600Y51600D01*
X119560Y48500D01*
G01X119210Y49580D02*
X117990D01*
G01X120890Y48910D02*
X121200Y48650D01*
X121550Y48500D01*
X121850D01*
X122160Y48650D01*
X122390Y48910D01*
X122510Y49280D01*
X122430Y49640D01*
X122240Y49950D01*
X121890Y50150D01*
X121430Y50260D01*
X121160Y50460D01*
X121050Y50820D01*
X121130Y51190D01*
X121320Y51440D01*
X121580Y51600D01*
X121850D01*
X122120Y51500D01*
X122350Y51240D01*
G01X124800Y51600D02*
Y48500D01*
G01X123920Y51600D02*
X125680D01*
G01X127440D02*
X128360D01*
G01X127900D02*
Y48500D01*
G01X127440D02*
X128360D01*
G01X130270Y51080D02*
X130500Y51390D01*
X130770Y51550D01*
X131080Y51600D01*
X131460Y51500D01*
X131730Y51240D01*
X131810Y50930D01*
X131770Y50620D01*
X131610Y50360D01*
X130850Y49840D01*
X130500Y49480D01*
X130270Y48960D01*
X130190Y48500D01*
X131810D01*
G01X132550Y88600D02*
X132240Y88650D01*
X131980Y88860D01*
X131740Y89170D01*
X131590Y89530D01*
X131510Y89940D01*
Y90360D01*
X131590Y90770D01*
X131740Y91130D01*
X131980Y91440D01*
X132240Y91650D01*
X132550Y91700D01*
X132860Y91650D01*
X133120Y91440D01*
X133360Y91130D01*
X133510Y90770D01*
X133590Y90360D01*
Y89940D01*
X133510Y89530D01*
X133360Y89170D01*
X133120Y88860D01*
X132860Y88650D01*
X132550Y88600D01*
G01X132860Y89430D02*
X133320Y88600D01*
G01X136110D02*
Y91700D01*
X134690Y89480D01*
X136610D01*
G01X115280Y74600D02*
Y77700D01*
X116200D01*
X116510Y77540D01*
X116740Y77180D01*
X116820Y76770D01*
X116740Y76360D01*
X116550Y76050D01*
X116200Y75890D01*
X115280D01*
G01X119150Y74600D02*
X118840Y74650D01*
X118580Y74860D01*
X118340Y75170D01*
X118190Y75530D01*
X118110Y75940D01*
Y76360D01*
X118190Y76770D01*
X118340Y77130D01*
X118580Y77440D01*
X118840Y77650D01*
X119150Y77700D01*
X119460Y77650D01*
X119720Y77440D01*
X119960Y77130D01*
X120110Y76770D01*
X120190Y76360D01*
Y75940D01*
X120110Y75530D01*
X119960Y75170D01*
X119720Y74860D01*
X119460Y74650D01*
X119150Y74600D01*
G01X122250Y77700D02*
Y74600D01*
G01X121370Y77700D02*
X123130D01*
G01X124510Y75220D02*
X124740Y74860D01*
X125040Y74650D01*
X125390Y74600D01*
X125700Y74650D01*
X126000Y74910D01*
X126190Y75220D01*
X126230Y75530D01*
X126160Y75890D01*
X125890Y76150D01*
X125620Y76250D01*
X125270D01*
G01X125620D02*
X125850Y76410D01*
X126040Y76670D01*
X126120Y76980D01*
X126040Y77290D01*
X125850Y77540D01*
X125500Y77700D01*
X125160Y77650D01*
X124810Y77440D01*
G01X139290Y75340D02*
X139060Y75500D01*
X138800Y75600D01*
X138490D01*
X138140Y75440D01*
X137880Y75190D01*
X137680Y74880D01*
X137530Y74360D01*
X137490Y73890D01*
X137570Y73430D01*
X137680Y73120D01*
X137910Y72810D01*
X138180Y72600D01*
X138450Y72500D01*
X138720D01*
X138990Y72600D01*
X139220Y72760D01*
X139410Y72960D01*
G01X141550Y72500D02*
X141820Y72550D01*
X142120Y72710D01*
X142320Y72960D01*
X142390Y73330D01*
X142320Y73690D01*
X142090Y74000D01*
X141740Y74150D01*
X141360D01*
X141130Y74260D01*
X140940Y74510D01*
X140860Y74880D01*
X140980Y75240D01*
X141240Y75500D01*
X141550Y75600D01*
X141860Y75500D01*
X142120Y75240D01*
X142240Y74880D01*
X142160Y74510D01*
X141970Y74260D01*
X141740Y74150D01*
X141360D01*
X141010Y74000D01*
X140780Y73690D01*
X140710Y73330D01*
X140780Y72960D01*
X140980Y72710D01*
X141280Y72550D01*
X141550Y72500D01*
G01X116630Y122600D02*
Y125700D01*
X117590D01*
X117900Y125540D01*
X118090Y125340D01*
X118170Y124920D01*
X118090Y124510D01*
X117860Y124250D01*
X117590Y124100D01*
X116630D01*
G01X117590D02*
X118170Y122600D01*
G01X120500D02*
Y125700D01*
X120040Y125080D01*
G01Y122600D02*
X120960D01*
G01X122870Y125180D02*
X123100Y125490D01*
X123370Y125650D01*
X123680Y125700D01*
X124060Y125600D01*
X124330Y125340D01*
X124410Y125030D01*
X124370Y124720D01*
X124210Y124460D01*
X123450Y123940D01*
X123100Y123580D01*
X122870Y123060D01*
X122790Y122600D01*
X124410D01*
G01X115380Y145620D02*
X115580Y145310D01*
X115800Y145100D01*
X116070Y145000D01*
X116380Y145100D01*
X116610Y145310D01*
X116840Y145620D01*
X116920Y146030D01*
Y148100D01*
G01X118520Y147580D02*
X118750Y147890D01*
X119020Y148050D01*
X119330Y148100D01*
X119710Y148000D01*
X119980Y147740D01*
X120060Y147430D01*
X120020Y147120D01*
X119860Y146860D01*
X119100Y146340D01*
X118750Y145980D01*
X118520Y145460D01*
X118440Y145000D01*
X120060D01*
G01X120380Y133120D02*
X120580Y132810D01*
X120800Y132600D01*
X121070Y132500D01*
X121380Y132600D01*
X121610Y132810D01*
X121840Y133120D01*
X121920Y133530D01*
Y135600D01*
G01X124710Y132500D02*
Y135600D01*
X123290Y133380D01*
X125210D01*
G01X147810Y110000D02*
Y113100D01*
X148570D01*
X148880Y112940D01*
X149110Y112740D01*
X149300Y112430D01*
X149460Y112070D01*
X149490Y111550D01*
X149460Y111030D01*
X149300Y110670D01*
X149110Y110360D01*
X148880Y110150D01*
X148570Y110000D01*
X147810D01*
G01X151020Y112580D02*
X151250Y112890D01*
X151520Y113050D01*
X151830Y113100D01*
X152210Y113000D01*
X152480Y112740D01*
X152560Y112430D01*
X152520Y112120D01*
X152360Y111860D01*
X151600Y111340D01*
X151250Y110980D01*
X151020Y110460D01*
X150940Y110000D01*
X152560D01*
G54D11*
G01X26800Y112300D02*
X11000D01*
G01D02*
Y116700D01*
G01D02*
X10200Y117500D01*
G01D02*
X11000Y118300D01*
G01D02*
Y122700D01*
G01D02*
X26800D01*
G01X14500Y148500D02*
X8000D01*
Y148400D01*
Y131500D01*
X14500D01*
G01X47100Y40200D02*
X43200D01*
X43190Y47300D01*
X36790Y47290D01*
X36800Y40290D01*
X33200Y40280D01*
X33210Y32780D01*
X47010Y32800D01*
X47000Y40200D01*
X47100D01*
G01X40200Y12900D02*
Y16800D01*
X47300Y16810D01*
X47290Y23210D01*
X40290Y23200D01*
X40280Y26800D01*
X32780Y26790D01*
X32800Y12990D01*
X40200Y13000D01*
Y12900D01*
G01X43900Y97500D02*
Y88600D01*
G01X39400Y93000D02*
X48400D01*
G01X43900Y98900D02*
G03X38000Y93000I4J-5904D01*
G03X44100Y87100I5889J-15D01*
G03X49800Y93000I-197J5894D01*
G03X43900Y98900I-5918J-18D01*
G01X34000Y87500D02*
Y83100D01*
X53700D01*
Y84300D01*
G01X34000Y98500D02*
Y102800D01*
X53700D01*
Y101600D01*
G01X26800Y122700D02*
Y112300D01*
G01X54500Y148500D02*
X48000D01*
Y148400D01*
Y131500D01*
X54500D01*
G01X25500D02*
X32000D01*
Y148500D01*
X30500D01*
X25500D01*
G01X78900Y100000D02*
Y91100D01*
G01X74400Y95500D02*
X83400D01*
G01X78900Y101400D02*
G03X73000Y95500I4J-5904D01*
G03X79100Y89600I5889J-15D01*
G03X84800Y95500I-197J5894D01*
G03X78900Y101400I-5918J-18D01*
G01X69000Y90000D02*
Y85600D01*
X88700D01*
Y86800D01*
G01X53700Y94000D02*
Y92000D01*
G01X69000Y101000D02*
Y105300D01*
X88700D01*
Y104100D01*
G01X65500Y131500D02*
X72000D01*
Y148500D01*
X70500D01*
X65500D01*
G01X111800Y34800D02*
X96000D01*
G01D02*
Y39200D01*
G01D02*
X95200Y40000D01*
G01D02*
X96000Y40800D01*
G01X111800Y14800D02*
X96000D01*
G01D02*
Y19200D01*
G01D02*
X95200Y20000D01*
G01D02*
X96000Y20800D01*
G01D02*
Y25200D01*
G01D02*
X111800D01*
G01X100000Y68900D02*
X108900D01*
G01X104500Y64400D02*
Y73400D01*
G01X98600Y68900D02*
G03X104500Y63000I5904J4D01*
G03X110400Y69100I15J5889D01*
G03X104500Y74800I-5894J-197D01*
G03X98600Y68900I18J-5918D01*
G01X110000Y59000D02*
X114400D01*
Y78700D01*
X113200D01*
G01X99000Y59000D02*
X94700D01*
Y78700D01*
X95900D01*
G01X96000Y40800D02*
Y45200D01*
G01D02*
X111800D01*
G01X109800Y107000D02*
Y103100D01*
X102700D01*
Y96700D01*
X109700D01*
Y93100D01*
X117200D01*
Y106900D01*
X109800D01*
Y107000D01*
G01X103500Y78700D02*
X105500D01*
G01X88700Y96500D02*
Y94500D01*
G01X94500Y148500D02*
X88000D01*
Y148400D01*
Y131500D01*
X94500D01*
G01X105500D02*
X112000D01*
Y148500D01*
X110500D01*
X105500D01*
G01X111800Y45200D02*
Y34800D01*
G01Y25200D02*
Y14800D01*
G01X129800Y107100D02*
Y103200D01*
X122700D01*
Y96800D01*
X129700D01*
Y93200D01*
X137200D01*
Y107000D01*
X129800D01*
Y107100D01*
G01X138200Y125200D02*
X154000D01*
G01Y114800D02*
X138200D01*
G01D02*
Y125200D01*
G01X134500Y148500D02*
X128000D01*
Y148400D01*
Y131500D01*
X134500D01*
G01X154000Y125200D02*
Y120800D01*
G01D02*
X154800Y120000D01*
G01D02*
X154000Y119200D01*
G01D02*
Y114800D01*
G01X145500Y131500D02*
X152000D01*
Y148500D01*
X150500D01*
X145500D01*
G01X13100Y6100D02*
Y13900D01*
X26900D01*
Y6100D01*
X13100D01*
G01X17000Y33300D02*
Y46700D01*
X23000D01*
Y33300D01*
X17000D01*
G01X13100Y21100D02*
Y28900D01*
X26900D01*
Y21100D01*
X13100D01*
G01X18100Y63600D02*
Y71400D01*
X31900D01*
Y63600D01*
X18100D01*
G01Y73600D02*
Y81400D01*
X31900D01*
Y73600D01*
X18100D01*
G01X38100Y56100D02*
Y63900D01*
X51900D01*
Y56100D01*
X38100D01*
G01X38300Y74500D02*
Y80500D01*
X51700D01*
Y74500D01*
X38300D01*
G01X31300Y115200D02*
Y129000D01*
X39100D01*
Y115200D01*
X31300D01*
G01X38300Y104500D02*
Y110500D01*
X51700D01*
Y104500D01*
X38300D01*
G01X45400Y115000D02*
Y128800D01*
X53200D01*
Y115000D01*
X45400D01*
G01X56100Y5600D02*
Y19400D01*
X63900D01*
Y5600D01*
X56100D01*
G01X63300Y27000D02*
Y33000D01*
X76700D01*
Y27000D01*
X63300D01*
G01X63100Y66100D02*
Y73900D01*
X76900D01*
Y66100D01*
X63100D01*
G01X63300Y57000D02*
Y63000D01*
X76700D01*
Y57000D01*
X63300D01*
G01X67000Y113300D02*
Y126700D01*
X73000D01*
Y113300D01*
X67000D01*
G01X133100Y36100D02*
Y43900D01*
X146900D01*
Y36100D01*
X133100D01*
G01Y56100D02*
Y63900D01*
X146900D01*
Y56100D01*
X133100D01*
G01Y46100D02*
Y53900D01*
X146900D01*
Y46100D01*
X133100D01*
G01X133300Y77000D02*
Y83000D01*
X146700D01*
Y77000D01*
X133300D01*
G01X126100Y113100D02*
Y126900D01*
X133900D01*
Y113100D01*
X126100D01*
M02*
